# xmcd
#
# Track frame offsets:
#	150
#	12301
#	22690
#	35498
#	47169
#	58131
#	73067
#	80413
#	91417
#	101726
#	113930
#	124330
#	137433
#	149508
#	161358
#	169846
#	183540
#	196088
#	206597
#	217113
#
# Disc length: 3033 seconds
#
# Revision: 0
# Processed by: cddbd v1.5.2PL0 Copyright (c) Steve Scherf et al.
# Submitted via: FairStars CD Ripper 1.80
#
DISCID=220bd714
DTITLE=Various Artist - Simply Doo Wop - CD 2
DYEAR=2012
DGENRE=Doo Wop
TTITLE0=The Platters - The Great Pretender
TTITLE1=Dion and The Belmonts - I Wonder Why
TTITLE2=The Dixie Cups - Chapel Of Love
TTITLE3=Dion and The Belmonts - A Teenager In Love
TTITLE4=The Chords - Sh-Boom
TTITLE5=The Flamingos - I Only Have Eyes For You
TTITLE6=Maurice Williams and The Zodiacs - Stay
TTITLE7=The Chordettes - Mr. Sandman
TTITLE8=Little Anthony and The Imperials - Tears On My Pillow
TTITLE9=The Harptones - Life Is But A Dream
TTITLE10=The Dubs - Could This Be Magic?
TTITLE11=The Dells - Oh, What A Night
TTITLE12=The Del Vikings - Come Go With Me
TTITLE13=The Skyliners - Since I Don't Have You
TTITLE14=The Clovers - Love Potion No. 9
TTITLE15=The Five Satins - In The Still Of The Night
TTITLE16=The Coasters - Zing! Went The Strings Of My Heart
TTITLE17=Clarence "Frogman" Henry - Ain't Got No Home
TTITLE18=The Coasters - Charlie Brown
TTITLE19=The Cadillacs - Speedoo
EXTD=
EXTT0=
EXTT1=
EXTT2=
EXTT3=
EXTT4=
EXTT5=
EXTT6=
EXTT7=
EXTT8=
EXTT9=
EXTT10=
EXTT11=
EXTT12=
EXTT13=
EXTT14=
EXTT15=
EXTT16=
EXTT17=
EXTT18=
EXTT19=
PLAYORDER=
